<mxfile host="app.diagrams.net" modified="2022-10-06T08:04:02.803Z" agent="5.0 (Windows NT 10.0; Win64; x64) AppleWebKit/537.36 (KHTML, like Gecko) Chrome/105.0.0.0 Safari/537.36" etag="0Cu_i08-47VcDuC3hy34" version="20.2.7" type="github">
  <diagram id="fjzmNal3tV86gS_1LTCR" name="페이지-1">
    <mxGraphModel dx="1146" dy="486" grid="1" gridSize="10" guides="1" tooltips="1" connect="1" arrows="1" fold="1" page="1" pageScale="1" pageWidth="827" pageHeight="1169" math="0" shadow="0">
      <root>
        <mxCell id="0" />
        <mxCell id="1" parent="0" />
        <mxCell id="u_fNkNDR4HUex8JTrdVU-2" value="" style="shape=image;verticalLabelPosition=bottom;labelBackgroundColor=default;verticalAlign=top;aspect=fixed;imageAspect=0;image=data:image/png,iVBORw0KGgoAAAANSUhEUgAAAoAAAAG/CAYAAADICWbGAAAABmJLR0QA/wD/AP+gvaeTAAAYy0lEQVR4nO3de7BuZ0Hf8e/JnZAEDBCuEoiEOwg4kZvYIFZQ0IrirdKotFXbCnRGKzOWmcbWUcapY0VtB9uioXhFvIBVKAyiREAQhVSRAAKRSwOEEBIhkNvpHytHz37Xe05yztlnP/vd6/OZWZO875y992+vdWbv33nWep6nAAAAAAAAAAAAAAAAAAAAAAAAAAAAAAAAAAAAAAAAAAAAAAAAAAAAAAAAAAAAAAAAAAAAAAAAAAAAAAAAAAAAAAAAAAAAAAAAAAAAAAAAAAAAAAAAAAAAAAAAAAAAAAAAAAAAAAAAAAAAAGBP2jc6AMBx8sXVOdUZ1Vkrx4nVtSvHZ6pPV1dUNw/IC7BjFEBg051bPbF60K3HA2897niUn+8L1fury6v33nr8afXuY04KsEsogMCmuXf15FuPC6vzdujrXlm9sfrDW//73h36ugAAi3R+9aPVe6r9u+T4cPXT1WOO4/cNALAoZ1f/qnpz21fabqiuvvW4fhs/719WP1zd57icCYBt5hYwsNt8afWC6puqU4/g465uui37nrY+v3dtdd2tx00rH7OvunN1enVm9YC2Pkf44OoeR5Dhlup11YuabhMDAHAYT6he3VSibs+o2yeqV1T/unroccx1bvXd1SXV397ObPubRi6fkX9oAwDMfEXTxIrbU6r+vPrB6hGNK1YPqL6vaYTv5m4787uqbxwRFABgt7lv04jfbRWo9zXdEr7vmJiHdXb1vdWl3fb38UfVw8fEBAAY68Sm27ZXd/jC9MfV06sTxsQ8Yo+vfrvD38K+vmk28x0GZQQA2HGPrv6swxe/36+eNCrgNnhY9fLqxg79Pf5N9dRRAQEAdsK+6rnV5zt0KXplU0HcK86rXtI083jd93tL9ZPVyaMCAgAcL2dXv9Ohi9/729ujYY+p3tahv/+3VvcbFQ4AYLs9tfp464vPddXzW8YI2L7qoqalaw51Lv7ZsHQAANvkWU07b6wrPG9rWmR5ae5ZvapDjwb+WNYNBAA21A+0fo28W6qfqU4ZF224fdUPdehy/AtNM6UBADbCCU0Fb12xubJ6yrhou85jmtY4XHeuXte0NR0AwK52UvWLHXo3jPPGRdu17lK9tvXn7I3VnYYlAwC4DfuqX259kXlDiszhnNy0z/C6c/fm6vRx0QAADu2nWl9gfr06dWCuTbGv+onWn8NXNY2uAgDsGi9sfXG5ODNaj9R3t34HkV9pc7bEAwD2uGe3fu/bnxoZasN9b+vP6X8cGQoAoOrC1i9lcklG/o7Vv2/9qOr3jAwFACzb3aqPNi8or87zatvlxc3P72erh40MBQAs0wnVHzQvJ5dmxup2OqHp2b/V8/yXOc8AwA57QfNS8rHq7iND7VGnVX/R/Hz/j5GhAIBleULz5/5uanoekOPj/OozzUvgd44MBQAswx2rK5oXkX83MtRCPKP5zOBrq3uPDAUA7H3/oXn5e23Wp9spP9/8/L98aCIAYE/7kur6tpaPa6p7jAy1MKdV723rNbilevLIUADA3vW65qNP3z800TJ9ZfNbwe9rKocAANvmmc3L3zuqE0eGWrDfaH49XjA0EQCwp+yr3tXWsnFz9diRoRbuPk0TQA6+JldVZ4wMBQDsHV/ffLTpJUMTUfWDza/LDw1NBADsCfuqP2++Fdk5I0NR1cnVB9t6bT6eHUIAgGP0Nc1HmV48NBEH+zfNr89zhyYCADbe69taLm6o7jcyEFucXn2irdfog02jgwAAR+whzUeXLhmaiHV+pPl1eubQRADAxvqJ5gsOP2RoIta5U/N9gn9raCIAYCOdWH20raXiD4cm4nD+W1uv1Y3V3YcmAgA2zlOb31b8nqGJOJwnZDIIAHCMXt7WMnFdFhne7S5v6zV729g4AMAmOa2p8B1cJn5taCJujx9tPgp43tBEAMDGeHLzIvH0oYm4Pc5vft2+b2giAGBj/FhbS8TnqlOHJuL2endbr91vjI0DAGyKN7e1RLxubByOwM+19dpdVZ0wNBGwa/nhABxwVnXBynuWf9kcb1h5fZfq4SOCALufAggc8MTqpJX3VksFu9cbqptX3vuqEUGA3U8BBA547Mrr66p3jAjCUbmmumzlvceNCALsfgogcMCDV17/RdOuEmyOt6+8Xr2mAJUCCPyD1bLwniEpOBar1+yB+TkPrOEHA1DTz4IHrrx3+YggHJPVa3aH6otHBAF2NwUQqLpPU1k4mAK4edZdswfteApg11MAgVpfEhTAzfOh6gsr73kOEJhRAIGa3ya8qalMsFlurj648t59RwQBdjcFEKhpEeiDXddUAtk8V668vuuQFMCupgACVWeuvL5uSAq2w1UrrxVAYEYBBKrOWHn9d0NSsB2uWXm9OroLoAAClRHAveTzK69PHZIC2NUUQKAUwL1kdRawAgjMKIBA1Ukrr00A2Vw3r7z2cx6Y8YMBqPkzf6vPBLI5Vkf8bhiSAtjVFECg5rd8V28JszlWC+DqLWEABRCojADuJavX7nNDUgC7mgIIlBHAvWR13b9PDUkB7GoKIFDzAmgEcHPdZeW1AgjMKIBAzUvC6c2LBJvhfiuvPz4iBLC7KYBA1eVr3nvwjqfgWN2lutvKe+8ZEQTY3RRAoOp91S0r7z1oRBCOybprtq7cAwunAAJV11cfXnlPAdw8q9fsluq9I4IAu5sCCBywOlKkAG6e1Wv2kaZyD7CFAggcsDpS9NAhKTgWq9fM6B+wlgIIHPCuldfnV/ceEYSjcmL1pJX3Vq8pAMAW51X7V47vGpqII/HY5tfva4cmAnYtI4DAAR+oPrTy3lcNyMHRWb1WN1ZvGhEEANgsv9jWEaSPjo3DEXh9W6/dpWPjALuZEUDgYH+08vpeTc8CsrudVj1+5b3Vawnw9xRA4GBvWPPet+54Co7U1zdt33ewPxwRBADYTO9o663Evx4bh9vhd9t6zT5VnTI0EQCwUX6g+WzSxw1NxOHcvWnCx8HX68VDEwEAG+fs6vNtLRQ/PzQRh/O85oX9gqGJAICN9Oq2FopPVCcPTcShvKWt12p1Sz8AgNvlW5qPKn3P0ESs84Tm1+mFQxMBABvrtKZRv4OLxXubthtj9/j9tl6jG6tzhyYCADbaC5qPLl00NBEHWzf699KhiQCAjXdmdXXzJWGsH7o7rD6neVP1JUMTAQB7wo83H2X6lqGJqHpUdUtbr8srhyYCAPaMc6rPtrVoXFHdcWSohdvXtM/vajH/spGhAIC95b80LxsvGppo2Z7T/Hr8/tBEAMCec1b1seazTb90ZKiFOqf5c5nXV+ePDAUA7E0XNR91urTpdiQ756XNr8N/GpoIANiz9lV/0rx8/PORoRbmH1U353lMAGAHfWnTrd+DC8hnq4ePDLUQ51QfbV7AnzkyFACwDD/ZvIS8uzpjZKg97oTq/zQ/778zMhQAsBwnVW9qXkZ+Y2SoPe7Hmp/vD1R3HhkKAFiW+1efbl5Kvn9kqD3qHzft8LE6A/srRoYCAJbpWc0L4I3VN4wMtcd8WXVt8/P8IyNDAQDL9tPNy8kXqqeODLVHPLS6qvXP/Vl6BwAY5rTqDc1LyjVZJPpY3LPpGb/V83p5ddeBuQAAqrpT9c7mZeX/NY1icWTOqS5rfj4/1vTsJQDArnDP6oPNS8tV1eMG5to096/e2/w8fqZ61MBcAABr3b9p1G+1vHy+acIIh/f46lPNz99nq8cOzAUAcFhfXl3dvMTcUP3Tgbl2uye1flmdL1TfPDAXAMDt8vDqI83LzC3Vf65OGRdt19lX/dumord6vq5rWgMQAGAj3K9pxupqqdlf/Wl13rBku8ddqle1/hx9orpgXDQAgKPzRa3fMm5/9bnq+eOiDfe0ppK37txc3lSgAQA20pnVb7W+6BzYP/hew9LtvLOqFzff2u3A8eaWdT4AgD3sB6rrW196PlM9rzpxWLqd8a3VR1t/Dm6uXlSdNCwdAMBx8KjqPR16NPDP2pvLnZxf/UGH/r4/Xn3NsHQAAMfZGdUlHboM7a9eW104KN92ekj1vzr07d791euqe4wKCACwk57a+h0vDj7+pHpG01Ipm+Th1a813dY91Pd2ZXVRm/e9AQAck1OrFzbNCD5cEbysacbwOWNi3i5nVt9dvb7DF7+bqp+t7jwkJQDALnG/Dr0e3sHHjdWrmyZTnDYi6IoTq6+tfrlpu7bbyv+W6tFDkgIA7FKPq363aceQ2ypT1zaVxudXD9vBjPer/kXTLd5P3o6c+6tLq6/L7V4AgEN6RNOo2uEmT6weH6teVv1w9Y3Vg6uTjyHDiU27lTytaau2X6jefwR59levqb7yGDIAHFf+VQrsRuc1PVf37Or+R/HxN1UfbJps8snq6urTTbeSD3ZCdXbTziV3rR5w63HqUXzNT1S/Wv1S9c6j+HgAAJr+kfqk6r9X13Rko3A7cVxf/XrTjGULOQMAbLPTqmdW/7XbXkbmeB4faRrle3Z1p+P5DQMcL24BA5vqvtVXV09pWn/vgW3/DOEbqw9Uf1W9sWmpl7/e5q8BsOMUQGCvOKGpFD7w1uPBt/73wDN+d26+5/AtTfsRX9P0jOAHmgre5bceH2x6nhAAgA118GxexQ5YrBNGBwAAYGcpgAAAC6MAAgAsjAIIALAwCiAAwMIogAAAC6MAAgAsjAIIALAwCiAAwMIogAAAC6MAAgAsjAIIALAwCiAAwMIogAAAC6MAAgAsjAIIALAwCiAAwMIogAAAC6MAAgAsjAIIALAwCiAAwMIogAAAC6MAAgAsjAIIALAwCiAAwMIogAAAC6MAAgAsjAIIALAwCiAAwMIogAAAC6MAAgAsjAIIALAwCiAAwMIogAAAC6MAAgAsjAIIALAwCiAAwMIogAAAC6MAAgAsjAIIALAwCiAAwMIogAAAC6MAAgAsjAIIALAwCiAAwMKcNDoAcNSeXT18dIgNc5eD/v+E6iWjguwRl1U/PzoEcOT2jQ4AHLVXVt80OgSL9urqG0aHAI6cW8AAAAujAAIALIxbwLC5HlmdMzrEhrmkutet/39L9dSBWfaCq6p3jg4BAHA476/233rcNDgLwDBuAQMALIwCCACwMAogAMDCKIAAAAujAAIALIwCCACwMAogAMDCKIAAAAujAAIALIwCCACwMAogAMDCKIAAAAujAAIALIwCCACwMAogAMDCKIAAAAujAAIALIwCCACwMAogAMDCKIAAAAujAAIALIwCCACwMAogAMDCKIAAAAujAAIALIwCCACwMAogAMDCKIAAAAujAAIALIwCCACwMAogAMDCKIAAAAujAAIALIwCCACwMAogAMDCKIAAAAujAAIALIwCCACwMAogAMDCKIAAAAujAAIALIwCCACwMAogAMDCKIAAAAujAAIALIwCCACwMAogAMDCKIAAAAujAAIALIwCCACwMAogAMDCKIAAAAujAAIALIwCCACwMAogAMDCKIAAAAujAAIALIwCCACwMAogAMDCKIAAAAujAAIALIwCCACwMAogAMDCKIAAAAujAAIALIwCCACwMAogAMDCKIAAAAujAAIALIwCCACwMAogAMDCKIAAAAujAAIALIwCCACwMAogAMDCKIAAAAujAAIALIwCCACwMAogAMDCKIAAAAujAAIALIwCCACwMAogAMDCKIAAAAujAAIALIwCCACwMAogAMDCKIAAAAujAAIALIwCCACwMAogAMDCKIAAAAujAAIALIwCCACwMAogAMDCKIAAAAujAAIALIwCCACwMAogAMDCKIAAAAujAAIALIwCCACwMAogAMDCKIAAAAujAAIALIwCCACwMAogAMDCKIAAAAujAAIALIwCCACwMAogAMDCKIAAAAujAAIALIwCCACwMAogAMDCKIAAAAujAAIALIwCCACwMAogAMDCKIAAAAujAAIALIwCCAAAwJ70uOq6av9Bx4ur00aGAgDg+Pi26vq2lr8Dx7uqh4yLBgDAdtpXvbC6pfXl78Dx2epfDsoIAMA2ObV6WevL3lvXvL+/ekX1RSPCAgBwbO7R+pJ3RfWIppHB51efX/NnPl49becjAwBwtB5dfaR5sXtbdc+VP/uw6v+u+bO3VD9TnbIzkQEAOFrPaD7Td3/1qx16tu8dmsreulvCb68ecHwjAwBwtJ5X3dS8xF3cdMv3tnxTdfWaj7+2evb2xwUA4GidVL2keXH7QvWcI/xc963+eM3n2t80oeSM7YkMAMDRulP1muZl7ZPVVxzl5zypadRw3WjiB6vHH1NiAACO2rnVZc1L2nvanuf2/lH14TWf/8amgmgrTQCAHXRB9bHm5eyN1dnb+HXuVP3amq+zv3p9da9t/FoAABzCd7R+W7dLOn7LtlxU/d2ar/mJ6unH6WsCANB063V1W7ebmxZ1Pt4eUr2zeQk8sGbgqTuQAQBgMU6pXtq8fH2uetYO5jitqeyt21v4HdUDdzALAMCedbfq0uaF68rqsYMy/ZPqqjWZPtfOjEYCAOxZD6re17xo/UV1n4G5qu7e+iVo9le/WX3RuGgAAJvpwupTzcvV71Vnjou1xb6mEb8bmuf8UPXEYckAADbMdzXt5LFaqn62OnFgrkO5oPUjlQfWDNyNmQEAdoUTmiZZrBapm9r9z9adVb289beE31Dde1w0AIDd6fTqFc3L02eqpw3MdaQuqq5r/fZ03zAwFwDArnKP6q3NS9MV1SMG5jpa96/e0vrRwJc1lV0AgMV6dPWR5kXpbdU9B+Y6Vic1Pf93c/Pv7a+qRw5LBgAw0DNaf7v0V5sWXd4Lvrr1+xZf3+5/rhEAYFs9t2lyx2oxurhpeZW95G5Ny9esuyX8W9XZ46IBABx/J1UvaV6EbqieMzDX8XZgzcDPN//e/7b6ynHRAACOn7Nav3vG1dVTBubaSY+pLm/9Ujcvqk4eFw0AYHudW13WvPi8p3rAwFwj3KH16x3ub5oNfd64aAAA2+OC1k+EeGPLfv7tm5tGP1fPyzXVtw/MBQBwTL6jacbrasm5pDp1YK7d4tzqTR16zcA7josGAHDkLq5uaWupubl6QXtvpu+xOLBm4LpZ0X9dPWpYMgCA2+mU6qXNy8znqmcNzLXbXVh9uEOvGag0AwC70l2rS5uXmCurxw3MtSnuXP16628Jv7Zp2zwAgF3jQdX7Wr/12f0H5tpEF1WfbX2RfurAXAAAf+/C6lPNC8vvVWeOi7XRHlq9q/k5vaVpGZlTxkUDAJbuu6ovNC8qP1udODDXXnBaU9lbnUyzv3pby1tDEQAY7ITWL2h8U9OkBbbPN1ZXNT/Xn6m+c2AuAGBBTq9e0fpC8rSBufay+zQtnn2oNQPPGJYMANjz7t60ZdlqCbmieuTAXEuwr2l09Ybm5//ypr2GAQC21aNav1bd26t7Dsy1NF9evb/5dbihaVHpE4YlAwD2lGdU1zUvHb+dLctGOKv65dbfEn5dCjkAcIye2/qtyi7ODhWjXdT6Yv7x6usG5gIANtRJ1Utaf6vxOQNzsdWDqj/PmoEAwDE6q3pN81Lx6eopA3Ox3slNI7I3N79mf1adPywZALARzq0ua/1MU4sP725fXX2s+bW7tvregbkAgF3sgtYXiDdWdxkXiyNwTvW/Wz9B5BXVncdFAwB2m2+vrm9eGi6pTh2YiyN3YM3Addv0fah64rBkAMCucXHzPWdvrl6Qmb6b7Muq9zYvgTdmzUAAWKxTqv/ZvCB8rvqWgbnYPme2fjb3/uoN1b3HRQMAdtpdqzc1LwVXVo8bmIvj41nV1c2v9yerrx+YCwDYIQ+q3te8DPxVdf+BuTi+zq0ubf2agS+pTh8XDQA4ni6sPtW8BPxe0+1C9raTmp7/W7e7y19WjxiWDAA4Li5q/czQn6tOHJiLnffk6iOtf/7z+QNzAQDb5ISmbcFWf9nflF/2S3bX6lWtnyDyyurscdEAgGNxh6YFgFd/wX+metrAXOweF1Wfbf535IrqSQNzAQBH4e7VW1v/i/2RA3Ox+zy0elfrR4kvziMCALARHlV9uPkv9LdX9xyYi93rtNY/KrC/ektmiAPArvb06trmv8R/u7rjwFxshme2fqb4NdW3DcwFABzCc1u/xMfF2daN2++Lqz9q/Wjgy/IPCQDYFfZVP976Z7ieNzAXm+vk6iea9oVe/Xtlq0AAGOys6jXNf0l/unrKwFzsDY+t/qZ/+Hv1S0PTAADdt7qsefm7vDp/YC72lrOqX6nendu/ADDUI5uWdFktf2/LTF+2376mpYUAgEFOqf62efn7zer0gbkAADiOnlR9vqn43Vy9IDN9AQD2vG9v2sbLrEwAgAX5ktEBAAAAAAAAAAAAAAAAAAAAAAAAAAAAAAAAAAAAAAAAAAAAAAAAAAAAAAAAAAAAAAAAAAAAAAAAAAAAAAAAAAAAAAAAAAAAAAAAAAAAAAAAAAAAAAAAAAAAAAAAAAAAAAAAAAAAAAAAAAAAAAAABvn/uqARSn6GUOYAAAAASUVORK5CYII=;" vertex="1" parent="1">
          <mxGeometry x="60" y="210" width="157.5" height="110" as="geometry" />
        </mxCell>
        <mxCell id="u_fNkNDR4HUex8JTrdVU-3" value="Advertiser Web Site" style="swimlane;" vertex="1" parent="1">
          <mxGeometry x="295" y="230" width="237.5" height="70" as="geometry" />
        </mxCell>
        <mxCell id="u_fNkNDR4HUex8JTrdVU-4" value="web page has scaript for tracking" style="text;html=1;align=center;verticalAlign=middle;resizable=0;points=[];autosize=1;strokeColor=none;fillColor=none;" vertex="1" parent="u_fNkNDR4HUex8JTrdVU-3">
          <mxGeometry x="17.5" y="30" width="200" height="30" as="geometry" />
        </mxCell>
        <mxCell id="u_fNkNDR4HUex8JTrdVU-5" value="Visit" style="endArrow=classic;html=1;rounded=0;entryX=0;entryY=0.5;entryDx=0;entryDy=0;" edge="1" parent="1" source="u_fNkNDR4HUex8JTrdVU-2" target="u_fNkNDR4HUex8JTrdVU-3">
          <mxGeometry width="50" height="50" relative="1" as="geometry">
            <mxPoint x="390" y="390" as="sourcePoint" />
            <mxPoint x="270" y="220" as="targetPoint" />
          </mxGeometry>
        </mxCell>
        <mxCell id="u_fNkNDR4HUex8JTrdVU-6" value="Audience" style="text;html=1;strokeColor=none;fillColor=none;align=center;verticalAlign=middle;whiteSpace=wrap;rounded=0;" vertex="1" parent="1">
          <mxGeometry x="108.75" y="320" width="60" height="30" as="geometry" />
        </mxCell>
        <mxCell id="u_fNkNDR4HUex8JTrdVU-7" value="Advertiser Data Collect Service" style="swimlane;" vertex="1" parent="1">
          <mxGeometry x="584.5" y="350" width="320" height="90" as="geometry" />
        </mxCell>
        <mxCell id="u_fNkNDR4HUex8JTrdVU-8" value="The server collects audience’s visiting information, &lt;br&gt;seen products,or product information in a shopping bag.&amp;nbsp;" style="text;html=1;align=center;verticalAlign=middle;resizable=0;points=[];autosize=1;strokeColor=none;fillColor=none;" vertex="1" parent="u_fNkNDR4HUex8JTrdVU-7">
          <mxGeometry y="38" width="320" height="40" as="geometry" />
        </mxCell>
        <mxCell id="u_fNkNDR4HUex8JTrdVU-9" value="" style="endArrow=classic;html=1;rounded=0;exitX=1;exitY=0.25;exitDx=0;exitDy=0;entryX=0.75;entryY=0;entryDx=0;entryDy=0;" edge="1" parent="1" source="u_fNkNDR4HUex8JTrdVU-3" target="u_fNkNDR4HUex8JTrdVU-7">
          <mxGeometry width="50" height="50" relative="1" as="geometry">
            <mxPoint x="570" y="247.5" as="sourcePoint" />
            <mxPoint x="648.75" y="210" as="targetPoint" />
            <Array as="points">
              <mxPoint x="825" y="250" />
            </Array>
          </mxGeometry>
        </mxCell>
        <mxCell id="u_fNkNDR4HUex8JTrdVU-10" value="" style="endArrow=classic;html=1;rounded=0;entryX=1;entryY=0.75;entryDx=0;entryDy=0;exitX=0.25;exitY=0;exitDx=0;exitDy=0;" edge="1" parent="1" source="u_fNkNDR4HUex8JTrdVU-7" target="u_fNkNDR4HUex8JTrdVU-3">
          <mxGeometry width="50" height="50" relative="1" as="geometry">
            <mxPoint x="740" y="210" as="sourcePoint" />
            <mxPoint x="500" y="150" as="targetPoint" />
            <Array as="points">
              <mxPoint x="665" y="283" />
            </Array>
          </mxGeometry>
        </mxCell>
        <mxCell id="u_fNkNDR4HUex8JTrdVU-12" value="" style="endArrow=classic;startArrow=classic;html=1;rounded=0;entryX=0.5;entryY=0;entryDx=0;entryDy=0;" edge="1" parent="1" target="u_fNkNDR4HUex8JTrdVU-15">
          <mxGeometry width="50" height="50" relative="1" as="geometry">
            <mxPoint x="742" y="440" as="sourcePoint" />
            <mxPoint x="602" y="160" as="targetPoint" />
          </mxGeometry>
        </mxCell>
        <mxCell id="u_fNkNDR4HUex8JTrdVU-15" value="Database Layer" style="swimlane;" vertex="1" parent="1">
          <mxGeometry x="624" y="476" width="235" height="150" as="geometry" />
        </mxCell>
        <mxCell id="u_fNkNDR4HUex8JTrdVU-11" value="" style="shape=image;verticalLabelPosition=bottom;labelBackgroundColor=default;verticalAlign=top;aspect=fixed;imageAspect=0;image=data:image/svg+xml,PHN2ZyB4bWxucz0iaHR0cDovL3d3dy53My5vcmcvMjAwMC9zdmciIGZpbGw9Im5vbmUiIHZpZXdCb3g9IjAgMCAxMTAyIDI3OCIgaGVpZ2h0PSIyNzgiIHdpZHRoPSIxMTAyIj4mI3hhOzxwYXRoIGZpbGw9IiMwMDFFMkIiIGQ9Ik04Mi4zMjI5IDI4LjY0NDRDNzEuNTM2NyAxNS44NDY5IDYyLjI0ODUgMi44NDk0NSA2MC4zNTEgMC4xNDk5NzFDNjAuMTUxMiAtMC4wNDk5OTAzIDU5Ljg1MTUgLTAuMDQ5OTkwMyA1OS42NTE4IDAuMTQ5OTcxQzU3Ljc1NDIgMi44NDk0NSA0OC40NjYxIDE1Ljg0NjkgMzcuNjc5OCAyOC42NDQ0Qy01NC45MDE5IDE0Ni43MjEgNTIuMjYxMyAyMjYuNDA2IDUyLjI2MTMgMjI2LjQwNkw1My4xNjAxIDIyNy4wMDZDNTMuOTU5IDIzOS4zMDMgNTUuOTU2NSAyNTcgNTUuOTU2NSAyNTdINTkuOTUxNEg2My45NDYzQzYzLjk0NjMgMjU3IDY1Ljk0MzggMjM5LjQwMyA2Ni43NDI4IDIyNy4wMDZMNjcuNjQxNiAyMjYuMzA2QzY3Ljc0MTQgMjI2LjQwNiAxNzQuOTA1IDE0Ni43MjEgODIuMzIyOSAyOC42NDQ0Wk01OS45NTE0IDIyNC42MDZDNTkuOTUxNCAyMjQuNjA2IDU1LjE1NzYgMjIwLjUwNyA1My44NTkyIDIxOC40MDhWMjE4LjIwN0w1OS42NTE4IDg5LjYzMjZDNTkuNjUxOCA4OS4yMzI2IDYwLjI1MTEgODkuMjMyNiA2MC4yNTExIDg5LjYzMjZMNjYuMDQzNiAyMTguMjA3VjIxOC40MDhDNjQuNzQ1MyAyMjAuNTA3IDU5Ljk1MTQgMjI0LjYwNiA1OS45NTE0IDIyNC42MDZaIi8+JiN4YTs8cGF0aCBmaWxsPSIjMDAxRTJCIiBkPSJNMjYwLjUwMSAxOTguMzY5TDIxNS44NDUgODkuMzAxMkwyMTUuNzQ1IDg5SDE4MS4wMDFWOTYuMzMxNEgxODYuNjA4QzE4OC4zMSA5Ni4zMzE0IDE4OS45MTIgOTcuMDM0NCAxOTEuMTE0IDk4LjIzOTZDMTkyLjMxNSA5OS40NDQ3IDE5Mi45MTYgMTAxLjA1MiAxOTIuOTE2IDEwMi43NTlMMTkxLjkxNSAyMTIuNTNDMTkxLjkxNSAyMTUuOTQ0IDE4OS4xMTIgMjE4Ljc1NiAxODUuNzA3IDIxOC44NTdMMTgwIDIxOC45NTdWMjI2LjE4OEgyMTMuODQzVjIxOC45NTdMMjEwLjMzOCAyMTguODU3QzIwNi45MzQgMjE4Ljc1NiAyMDQuMTMgMjE1Ljk0NCAyMDQuMTMgMjEyLjUzVjEwOS4wODZMMjUyLjc5MiAyMjYuMTg4QzI1My40OTIgMjI3Ljg5NSAyNTUuMDk0IDIyOSAyNTYuODk3IDIyOUMyNTguNjk5IDIyOSAyNjAuMzAxIDIyNy44OTUgMjYxLjAwMiAyMjYuMTg4TDMwOC41NjIgMTExLjY5N0wzMDkuMjYzIDIxMi41M0MzMDkuMjYzIDIxNi4wNDUgMzA2LjQ1OSAyMTguODU3IDMwMi45NTUgMjE4Ljk1N0gyOTkuMzVWMjI2LjE4OEgzMzlWMjE4Ljk1N0gzMzMuNTkzQzMzMC4xODkgMjE4Ljk1NyAzMjcuMzg1IDIxNi4wNDUgMzI3LjI4NSAyMTIuNjNMMzI2Ljk4NSAxMDIuODU5QzMyNi45ODUgOTkuMzQ0MyAzMjkuNzg4IDk2LjUzMjIgMzMzLjE5MyA5Ni40MzE4TDMzOSA5Ni4zMzE0Vjg5SDMwNS4xNTdMMjYwLjUwMSAxOTguMzY5WiIvPiYjeGE7PHBhdGggZmlsbD0iIzAwMUUyQiIgZD0iTTU3MS44NjkgMjE3LjA0NkM1NzAuNzY0IDIxNS45NCA1NzAuMTYyIDIxNC40MzEgNTcwLjE2MiAyMTIuNjJWMTU4LjY5NkM1NzAuMTYyIDE0OC40MzUgNTY3LjE1MSAxNDAuMzg2IDU2MS4xMjcgMTM0LjY1MkM1NTUuMjA1IDEyOC45MTcgNTQ2Ljk3MyAxMjYgNTM2LjczNCAxMjZDNTIyLjM3OCAxMjYgNTExLjAzNSAxMzEuODM1IDUwMy4xMDQgMTQzLjMwNEM1MDMuMDA0IDE0My41MDUgNTAyLjcwMyAxNDMuNjA2IDUwMi40MDIgMTQzLjYwNkM1MDIuMSAxNDMuNjA2IDUwMS45IDE0My40MDQgNTAxLjkgMTQzLjEwM0w0OTguMTg1IDEyOC43MTZINDkxLjk2MUw0NzYgMTM3Ljg3MVYxNDIuOTAxSDQ4MC4xMTZDNDgyLjAyMyAxNDIuOTAxIDQ4My42MjkgMTQzLjQwNCA0ODQuNzM0IDE0NC40MTFDNDg1LjgzOCAxNDUuNDE3IDQ4Ni40NCAxNDYuOTI2IDQ4Ni40NCAxNDkuMDM4VjIxMi41MTlDNDg2LjQ0IDIxNC4zMyA0ODUuODM4IDIxNS44MzkgNDg0LjczNCAyMTYuOTQ2QzQ4My42MjkgMjE4LjA1MiA0ODIuMTI0IDIxOC42NTYgNDgwLjMxNyAyMTguNjU2SDQ3Ni4zMDFWMjI2SDUxMy4wNDJWMjE4LjY1Nkg1MDkuMDI3QzUwNy4yMiAyMTguNjU2IDUwNS43MTQgMjE4LjA1MiA1MDQuNjEgMjE2Ljk0NkM1MDMuNTA2IDIxNS44MzkgNTAyLjkwMyAyMTQuMzMgNTAyLjkwMyAyMTIuNTE5VjE3MC40NjdDNTAyLjkwMyAxNjUuMTM1IDUwNC4xMDggMTU5LjgwMyA1MDYuMzE3IDE1NC41NzFDNTA4LjYyNSAxNDkuNDQxIDUxMi4wMzggMTQ1LjExNSA1MTYuNTU2IDE0MS43OTVDNTIxLjA3MyAxMzguNDc1IDUyNi40OTQgMTM2Ljg2NSA1MzIuNzE4IDEzNi44NjVDNTM5Ljc0NSAxMzYuODY1IDU0NS4wNjYgMTM5LjA3OCA1NDguMzc4IDE0My41MDVDNTUxLjY5MSAxNDcuOTMyIDU1My4zOTggMTUzLjY2NiA1NTMuMzk4IDE2MC41MDdWMjEyLjQxOUM1NTMuMzk4IDIxNC4yMjkgNTUyLjc5NSAyMTUuNzM4IDU1MS42OTEgMjE2Ljg0NUM1NTAuNTg3IDIxNy45NTIgNTQ5LjA4MSAyMTguNTU1IDU0Ny4yNzQgMjE4LjU1NUg1NDMuMjU5VjIyNS44OTlINTgwVjIxOC41NTVINTc1Ljk4NUM1NzQuNDc5IDIxOC43NTcgNTczLjA3MyAyMTguMTUzIDU3MS44NjkgMjE3LjA0NloiLz4mI3hhOzxwYXRoIGZpbGw9IiMwMDFFMkIiIGQ9Ik05MDcuNTQ2IDk3LjIxMTlDODk3LjM5IDkxLjgwNCA4ODYuMDM5IDg5IDg3My43OTIgODlIODI2Vjk2LjMxMDZIODMwLjY4QzgzMi40NzIgOTYuMzEwNiA4MzQuMDY1IDk3LjAxMTcgODM1LjY1OCA5OC42MTRDODM3LjE1MiAxMDAuMTE2IDgzNy45NDggMTAxLjgxOSA4MzcuOTQ4IDEwMy42MjFWMjExLjM3OUM4MzcuOTQ4IDIxMy4xODEgODM3LjE1MiAyMTQuODg0IDgzNS42NTggMjE2LjM4NkM4MzQuMTY1IDIxNy44ODggODMyLjQ3MiAyMTguNjg5IDgzMC42OCAyMTguNjg5SDgyNlYyMjZIODczLjc5MkM4ODYuMDM5IDIyNiA4OTcuMzkgMjIzLjE5NiA5MDcuNTQ2IDIxNy43ODhDOTE3LjcwMSAyMTIuMzggOTI1Ljk2NiAyMDQuMzY4IDkzMS45NCAxOTQuMTU0QzkzNy45MTQgMTgzLjkzOSA5NDEgMTcxLjYyMSA5NDEgMTU3LjZDOTQxIDE0My41OCA5MzcuOTE0IDEzMS4zNjIgOTMxLjk0IDEyMS4wNDdDOTI1Ljg2NiAxMTAuNjMyIDkxNy43MDEgMTAyLjcyIDkwNy41NDYgOTcuMjExOVpNOTIxLjc4NCAxNTcuNEM5MjEuNzg0IDE3MC4yMTkgOTE5LjQ5NCAxODEuMDM0IDkxNS4wMTMgMTg5Ljc0N0M5MTAuNTMzIDE5OC40NiA5MDQuNTU4IDIwNC45NjkgODk3LjE5IDIwOS4xNzZDODg5LjgyMyAyMTMuMzgyIDg4MS42NTggMjE1LjQ4NSA4NzIuODk2IDIxNS40ODVIODYzLjIzOEM4NjEuNDQ2IDIxNS40ODUgODU5Ljg1MyAyMTQuNzg0IDg1OC4yNiAyMTMuMTgxQzg1Ni43NjYgMjExLjY3OSA4NTUuOTcgMjA5Ljk3NyA4NTUuOTcgMjA4LjE3NFYxMDYuNTI2Qzg1NS45NyAxMDQuNzIzIDg1Ni42NjcgMTAzLjEyMSA4NTguMjYgMTAxLjUxOEM4NTkuNzUzIDEwMC4wMTYgODYxLjQ0NiA5OS4yMTQ5IDg2My4yMzggOTkuMjE0OUg4NzIuODk2Qzg4MS42NTggOTkuMjE0OSA4ODkuODIzIDEwMS4zMTggODk3LjE5IDEwNS41MjRDOTA0LjU1OCAxMDkuNzMgOTEwLjUzMyAxMTYuMjQgOTE1LjAxMyAxMjQuOTUyQzkxOS40OTQgMTMzLjc2NSA5MjEuNzg0IDE0NC42ODEgOTIxLjc4NCAxNTcuNFoiLz4mI3hhOzxwYXRoIGZpbGw9IiMwMDFFMkIiIGQ9Ik0xMDUzLjk3IDE2NC43MTFDMTA0OS41NSAxNTkuNjAzIDEwNDEuMDIgMTU1LjI5NyAxMDMwLjk5IDE1Mi45OTNDMTA0NC44NCAxNDYuMDgzIDEwNTEuOTYgMTM2LjM2OSAxMDUxLjk2IDEyMy44NTFDMTA1MS45NiAxMTcuMDQxIDEwNTAuMTYgMTEwLjkzMiAxMDQ2LjU0IDEwNS43MjRDMTA0Mi45MyAxMDAuNTE3IDEwMzcuODEgOTYuMzEwNiAxMDMxLjI5IDkzLjQwNjNDMTAyNC43NiA5MC41MDIxIDEwMTcuMTMgODkgMTAwOC41IDg5SDk1NC40MDJWOTYuMzEwNkg5NTguNzE4Qzk2MC41MjQgOTYuMzEwNiA5NjIuMTMgOTcuMDExNyA5NjMuNzM2IDk4LjYxNEM5NjUuMjQyIDEwMC4xMTYgOTY2LjA0NSAxMDEuODE5IDk2Ni4wNDUgMTAzLjYyMVYyMTEuMzc5Qzk2Ni4wNDUgMjEzLjE4MSA5NjUuMjQyIDIxNC44ODQgOTYzLjczNiAyMTYuMzg2Qzk2Mi4yMzEgMjE3Ljg4OCA5NjAuNTI0IDIxOC42ODkgOTU4LjcxOCAyMTguNjg5SDk1NFYyMjZIMTAxMi43MkMxMDIxLjY1IDIyNiAxMDI5Ljk4IDIyNC40OTggMTAzNy41MSAyMjEuNDkzQzEwNDUuMDQgMjE4LjQ4OSAxMDUxLjA2IDIxNC4wODMgMTA1NS4zOCAyMDguMjc0QzEwNTkuNzkgMjAyLjQ2NiAxMDYyIDE5NS4zNTUgMTA2MiAxODcuMTQzQzEwNjEuOSAxNzguMzMgMTA1OS4yOSAxNzAuODE5IDEwNTMuOTcgMTY0LjcxMVpNOTg2LjYyMSAyMTMuMjgxQzk4NS4xMTUgMjExLjc3OSA5ODQuMzEyIDIxMC4wNzcgOTg0LjMxMiAyMDguMjc0VjE1OS45MDNIMTAxMi4yMkMxMDIyLjA1IDE1OS45MDMgMTAyOS41OCAxNjIuNDA3IDEwMzQuOCAxNjcuNDE0QzEwNDAuMDIgMTcyLjQyMiAxMDQyLjYzIDE3OC45MzEgMTA0Mi42MyAxODYuOTQzQzEwNDIuNjMgMTkxLjc1IDEwNDEuNDIgMTk2LjQ1NyAxMDM5LjIyIDIwMC43NjNDMTAzNi45MSAyMDUuMTcgMTAzMy40OSAyMDguNjc1IDEwMjguODggMjExLjM3OUMxMDI0LjM2IDIxNC4wODMgMTAxOC43NCAyMTUuNDg1IDEwMTIuMjIgMjE1LjQ4NUg5OTEuNjM5Qzk4OS44MzMgMjE1LjQ4NSA5ODguMjI3IDIxNC43ODQgOTg2LjYyMSAyMTMuMjgxWk05ODQuNDEzIDE0OS41ODhWMTA2LjYyNkM5ODQuNDEzIDEwNC44MjMgOTg1LjExNSAxMDMuMjIxIDk4Ni43MjEgMTAxLjYxOEM5ODguMjI3IDEwMC4xMTYgOTg5LjkzMyA5OS4zMTUgOTkxLjc0IDk5LjMxNUgxMDA0Ljk5QzEwMTQuNTIgOTkuMzE1IDEwMjEuNTUgMTAxLjcxOSAxMDI1Ljk3IDEwNi4zMjVDMTAzMC4zOCAxMTEuMDMyIDEwMzIuNTkgMTE3LjA0MSAxMDMyLjU5IDEyNC40NTJDMTAzMi41OSAxMzIuMDYzIDEwMzAuNDggMTM4LjE3MiAxMDI2LjM3IDE0Mi43NzhDMTAyMi4yNSAxNDcuMjg1IDEwMTYuMDMgMTQ5LjU4OCAxMDA3LjggMTQ5LjU4OEg5ODQuNDEzWiIvPiYjeGE7PHBhdGggZmlsbD0iIzAwMUUyQiIgZD0iTTQzMS45OTkgMTMyLjM4OEM0MjQuMzI5IDEyOC4xOTYgNDE1Ljc2MyAxMjYgNDA2LjUgMTI2QzM5Ny4yMzcgMTI2IDM4OC41NzEgMTI4LjA5NiAzODEuMDAxIDEzMi4zODhDMzczLjMzMSAxMzYuNTc5IDM2Ny4yNTUgMTQyLjY2NyAzNjIuNzczIDE1MC4zNTJDMzU4LjI5MSAxNTguMDM3IDM1NiAxNjcuMDIgMzU2IDE3N0MzNTYgMTg2Ljk4IDM1OC4yOTEgMTk1Ljk2MyAzNjIuNzczIDIwMy42NDhDMzY3LjI1NSAyMTEuMzMzIDM3My4zMzEgMjE3LjQyMSAzODEuMDAxIDIyMS42MTNDMzg4LjY3MSAyMjUuODA0IDM5Ny4yMzcgMjI4IDQwNi41IDIyOEM0MTUuNzYzIDIyOCA0MjQuNDI5IDIyNS45MDQgNDMxLjk5OSAyMjEuNjEzQzQzOS42NjkgMjE3LjQyMSA0NDUuNzQ1IDIxMS4zMzMgNDUwLjIyNyAyMDMuNjQ4QzQ1NC43MDkgMTk1Ljk2MyA0NTcgMTg2Ljk4IDQ1NyAxNzdDNDU3IDE2Ny4wMiA0NTQuNzA5IDE1OC4wMzcgNDUwLjIyNyAxNTAuMzUyQzQ0NS43NDUgMTQyLjY2NyA0MzkuNjY5IDEzNi41NzkgNDMxLjk5OSAxMzIuMzg4Wk00MzkuMzcgMTc3QzQzOS4zNyAxODkuMjc2IDQzNi4zODIgMTk5LjI1NiA0MzAuNDA1IDIwNi40NDJDNDI0LjUyOSAyMTMuNjI4IDQxNi40NjEgMjE3LjMyMSA0MDYuNSAyMTcuMzIxQzM5Ni41NCAyMTcuMzIxIDM4OC40NzEgMjEzLjYyOCAzODIuNTk1IDIwNi40NDJDMzc2LjYxOCAxOTkuMjU2IDM3My42MyAxODkuMjc2IDM3My42MyAxNzdDMzczLjYzIDE2NC43MjQgMzc2LjYxOCAxNTQuNzQ0IDM4Mi41OTUgMTQ3LjU1OEMzODguNDcxIDE0MC4zNzIgMzk2LjU0IDEzNi42NzkgNDA2LjUgMTM2LjY3OUM0MTYuNDYxIDEzNi42NzkgNDI0LjUyOSAxNDAuMzcyIDQzMC40MDUgMTQ3LjU1OEM0MzYuMzgyIDE1NC43NDQgNDM5LjM3IDE2NC43MjQgNDM5LjM3IDE3N1oiLz4mI3hhOzxwYXRoIGZpbGw9IiMwMDFFMkIiIGQ9Ik03ODQuOTk5IDEzMi4zODhDNzc3LjMyOSAxMjguMTk2IDc2OC43NjMgMTI2IDc1OS41IDEyNkM3NTAuMjM3IDEyNiA3NDEuNTcxIDEyOC4wOTYgNzM0LjAwMSAxMzIuMzg4QzcyNi4zMzEgMTM2LjU3OSA3MjAuMjU1IDE0Mi42NjcgNzE1Ljc3MyAxNTAuMzUyQzcxMS4yOTEgMTU4LjAzNyA3MDkgMTY3LjAyIDcwOSAxNzdDNzA5IDE4Ni45OCA3MTEuMjkxIDE5NS45NjMgNzE1Ljc3MyAyMDMuNjQ4QzcyMC4yNTUgMjExLjMzMyA3MjYuMzMxIDIxNy40MjEgNzM0LjAwMSAyMjEuNjEzQzc0MS42NzEgMjI1LjgwNCA3NTAuMjM3IDIyOCA3NTkuNSAyMjhDNzY4Ljc2MyAyMjggNzc3LjQyOSAyMjUuOTA0IDc4NC45OTkgMjIxLjYxM0M3OTIuNjY5IDIxNy40MjEgNzk4Ljc0NSAyMTEuMzMzIDgwMy4yMjcgMjAzLjY0OEM4MDcuNzA5IDE5NS45NjMgODEwIDE4Ni45OCA4MTAgMTc3QzgxMCAxNjcuMDIgODA3LjcwOSAxNTguMDM3IDgwMy4yMjcgMTUwLjM1MkM3OTguNzQ1IDE0Mi42NjcgNzkyLjU2OSAxMzYuNTc5IDc4NC45OTkgMTMyLjM4OFpNNzkyLjM3IDE3N0M3OTIuMzcgMTg5LjI3NiA3ODkuMzgxIDE5OS4yNTYgNzgzLjQwNSAyMDYuNDQyQzc3Ny41MjggMjEzLjYyOCA3NjkuNDYgMjE3LjMyMSA3NTkuNSAyMTcuMzIxQzc0OS41MzkgMjE3LjMyMSA3NDEuNDcxIDIxMy42MjggNzM1LjU5NSAyMDYuNDQyQzcyOS42MTggMTk5LjI1NiA3MjYuNjMgMTg5LjI3NiA3MjYuNjMgMTc3QzcyNi42MyAxNjQuNjI0IDcyOS42MTggMTU0Ljc0NCA3MzUuNTk1IDE0Ny41NThDNzQxLjQ3MSAxNDAuMzcyIDc0OS41MzkgMTM2LjY3OSA3NTkuNSAxMzYuNjc5Qzc2OS40NiAxMzYuNjc5IDc3Ny41MjggMTQwLjM3MiA3ODMuNDA1IDE0Ny41NThDNzg5LjI4MiAxNTQuNzQ0IDc5Mi4zNyAxNjQuNzI0IDc5Mi4zNyAxNzdaIi8+JiN4YTs8cGF0aCBmaWxsPSIjMDAxRTJCIiBkPSJNNjQyLjY0IDEyNkM2MzQuNjE0IDEyNiA2MjcuMjkyIDEyNy43MDQgNjIwLjY3MSAxMzEuMTEzQzYxNC4wNSAxMzQuNTIyIDYwOC44MzQgMTM5LjEzNSA2MDUuMTIyIDE0NS4wNUM2MDEuNDExIDE1MC44NjUgNTk5LjUwNSAxNTcuMzgzIDU5OS41MDUgMTY0LjMwMUM1OTkuNTA1IDE3MC41MTcgNjAwLjkwOSAxNzYuMjMyIDYwMy44MTggMTgxLjM0NkM2MDYuNjI3IDE4Ni4yNTkgNjEwLjQzOSAxOTAuMzY5IDYxNS4yNTQgMTkzLjc3OEw2MDAuOTA5IDIxMy4yM0M1OTkuMTAzIDIxNS42MzYgNTk4LjkwMyAyMTguODQ0IDYwMC4yMDcgMjIxLjQ1MUM2MDEuNjExIDIyNC4xNTggNjA0LjIxOSAyMjUuNzYzIDYwNy4yMjkgMjI1Ljc2M0g2MTEuMzQyQzYwNy4zMjkgMjI4LjQ3IDYwNC4xMTkgMjMxLjY3OCA2MDEuOTEyIDIzNS40ODhDNTk5LjMwNCAyMzkuNzk5IDU5OCAyNDQuMzExIDU5OCAyNDguOTIzQzU5OCAyNTcuNTQ2IDYwMS44MTIgMjY0LjY2NSA2MDkuMzM1IDI2OS45NzlDNjE2Ljc1OSAyNzUuMjkzIDYyNy4xOTEgMjc4IDY0MC4zMzIgMjc4QzY0OS40NjEgMjc4IDY1OC4xODggMjc2LjQ5NiA2NjYuMTEzIDI3My41ODhDNjc0LjEzOCAyNzAuNjgxIDY4MC42NTggMjY2LjM2OSA2ODUuNDczIDI2MC43NTVDNjkwLjM4OSAyNTUuMTQgNjkyLjg5NyAyNDguMzIyIDY5Mi44OTcgMjQwLjUwMUM2OTIuODk3IDIzMi4yOCA2ODkuODg3IDIyNi40NjQgNjgyLjg2NSAyMjAuODVDNjc2Ljg0NyAyMTYuMTM3IDY2Ny40MTcgMjEzLjYzMSA2NTUuNjggMjEzLjYzMUg2MTUuNTU1QzYxNS40NTUgMjEzLjYzMSA2MTUuMzU0IDIxMy41MyA2MTUuMzU0IDIxMy41M0M2MTUuMzU0IDIxMy41MyA2MTUuMjU0IDIxMy4zMyA2MTUuMzU0IDIxMy4yM0w2MjUuNzg3IDE5OS4xOTNDNjI4LjU5NiAyMDAuNDk2IDYzMS4yMDQgMjAxLjI5OCA2MzMuNTExIDIwMS43OTlDNjM1LjkxOCAyMDIuMzAxIDYzOC42MjcgMjAyLjUwMSA2NDEuNjM2IDIwMi41MDFDNjUwLjA2MyAyMDIuNTAxIDY1Ny42ODcgMjAwLjc5NyA2NjQuMzA3IDE5Ny4zODhDNjcwLjkyOCAxOTMuOTc5IDY3Ni4yNDUgMTg5LjM2NyA2ODAuMDU3IDE4My40NTFDNjgzLjg2OCAxNzcuNjM2IDY4NS43NzQgMTcxLjExOSA2ODUuNzc0IDE2NC4yMDFDNjg1Ljc3NCAxNTYuNzgxIDY4Mi4xNjMgMTQzLjI0NSA2NzIuMzMyIDEzNi4zMjdDNjcyLjMzMiAxMzYuMjI3IDY3Mi40MzMgMTM2LjIyNyA2NzIuNDMzIDEzNi4yMjdMNjk0IDEzOC42MzNWMTI4LjcwN0g2NTkuNDkyQzY1NC4wNzUgMTI3LjAwMyA2NDguNDU4IDEyNiA2NDIuNjQgMTI2Wk02NTQuNjc3IDE4OC43NjVDNjUwLjg2NSAxOTAuNzcgNjQ2Ljc1MiAxOTEuODczIDY0Mi42NCAxOTEuODczQzYzNS45MTkgMTkxLjg3MyA2MzAgMTg5LjQ2NyA2MjQuOTg0IDE4NC43NTVDNjE5Ljk2OSAxODAuMDQyIDYxNy40NjEgMTczLjEyNCA2MTcuNDYxIDE2NC4zMDFDNjE3LjQ2MSAxNTUuNDc4IDYxOS45NjkgMTQ4LjU1OSA2MjQuOTg0IDE0My44NDdDNjMwIDEzOS4xMzUgNjM1LjkxOSAxMzYuNzI4IDY0Mi42NCAxMzYuNzI4QzY0Ni44NTMgMTM2LjcyOCA2NTAuODY1IDEzNy43MzEgNjU0LjY3NyAxMzkuODM2QzY1OC40ODkgMTQxLjg0MiA2NjEuNTk5IDE0NC45NSA2NjQuMTA3IDE0OS4wNjFDNjY2LjUxNCAxNTMuMTcyIDY2Ny44MTggMTU4LjI4NSA2NjcuODE4IDE2NC4zMDFDNjY3LjgxOCAxNzAuNDE3IDY2Ni42MTQgMTc1LjUzIDY2NC4xMDcgMTc5LjU0MUM2NjEuNjk5IDE4My42NTIgNjU4LjQ4OSAxODYuNzYgNjU0LjY3NyAxODguNzY1Wk02MjcuNDkyIDIyNS42NjJINjU0LjY3N0M2NjIuMjAxIDIyNS42NjIgNjY3LjAxNiAyMjcuMTY2IDY3MC4yMjYgMjMwLjM3NUM2NzMuNDM2IDIzMy41ODMgNjc1LjA0MSAyMzcuODk0IDY3NS4wNDEgMjQyLjkwOEM2NzUuMDQxIDI1MC4yMjcgNjcyLjEzMiAyNTYuMjQzIDY2Ni4zMTQgMjYwLjc1NUM2NjAuNDk1IDI2NS4yNjcgNjUyLjY3MSAyNjcuNTczIDY0My4wNDEgMjY3LjU3M0M2MzQuNjE0IDI2Ny41NzMgNjI3LjU5MiAyNjUuNjY4IDYyMi40NzYgMjYyLjA1OEM2MTcuMzYgMjU4LjQ0OSA2MTQuNzUyIDI1Mi45MzQgNjE0Ljc1MiAyNDUuOTE2QzYxNC43NTIgMjQxLjUwNCA2MTUuOTU2IDIzNy4zOTMgNjE4LjM2NCAyMzMuNzg0QzYyMC43NzEgMjMwLjE3NCA2MjMuNjggMjI3LjU2NyA2MjcuNDkyIDIyNS42NjJaIi8+JiN4YTs8cGF0aCBmaWxsPSIjMDAxRTJCIiBkPSJNMTA4Mi4zNSAyMjQuMzI3QzEwODAuMzcgMjIzLjI0NCAxMDc4Ljg4IDIyMS42NjkgMTA3Ny42OSAyMTkuNzk5QzEwNzYuNiAyMTcuODMxIDEwNzYgMjE1Ljc2NCAxMDc2IDIxMy41QzEwNzYgMjExLjIzNiAxMDc2LjYgMjA5LjA3MSAxMDc3LjY5IDIwNy4yMDFDMTA3OC43OCAyMDUuMjMyIDEwODAuMzcgMjAzLjc1NiAxMDgyLjM1IDIwMi42NzNDMTA4NC4zNCAyMDEuNTkxIDEwODYuNTIgMjAxIDEwODkgMjAxQzEwOTEuNDggMjAxIDEwOTMuNjYgMjAxLjU5MSAxMDk1LjY1IDIwMi42NzNDMTA5Ny42MyAyMDMuNzU2IDEwOTkuMTIgMjA1LjMzMSAxMTAwLjMxIDIwNy4yMDFDMTEwMS40IDIwOS4xNjkgMTEwMiAyMTEuMjM2IDExMDIgMjEzLjVDMTEwMiAyMTUuNzY0IDExMDEuNCAyMTcuOTI5IDExMDAuMzEgMjE5Ljc5OUMxMDk5LjIyIDIyMS43NjggMTA5Ny42MyAyMjMuMjQ0IDEwOTUuNjUgMjI0LjMyN0MxMDkzLjY2IDIyNS40MDkgMTA5MS40OCAyMjYgMTA4OSAyMjZDMTA4Ni42MiAyMjYgMTA4NC4zNCAyMjUuNTA4IDEwODIuMzUgMjI0LjMyN1pNMTA5NC41NiAyMjIuOTQ5QzEwOTYuMjQgMjIyLjA2MyAxMDk3LjQ0IDIyMC42ODUgMTA5OC40MyAyMTkuMTFDMTA5OS4zMiAyMTcuNDM3IDEwOTkuODIgMjE1LjU2NyAxMDk5LjgyIDIxMy41QzEwOTkuODIgMjExLjQzMyAxMDk5LjMyIDIwOS41NjMgMTA5OC40MyAyMDcuODlDMTA5Ny41MyAyMDYuMjE3IDEwOTYuMjQgMjA0LjkzNyAxMDk0LjU2IDIwNC4wNTFDMTA5Mi44NyAyMDMuMTY1IDEwOTEuMDggMjAyLjY3MyAxMDg5IDIwMi42NzNDMTA4Ni45MiAyMDIuNjczIDEwODUuMTMgMjAzLjE2NSAxMDgzLjQ0IDIwNC4wNTFDMTA4MS43NiAyMDQuOTM3IDEwODAuNTYgMjA2LjMxNSAxMDc5LjU3IDIwNy44OUMxMDc4LjY4IDIwOS41NjMgMTA3OC4xOCAyMTEuNDMzIDEwNzguMTggMjEzLjVDMTA3OC4xOCAyMTUuNTY3IDEwNzguNjggMjE3LjQzNyAxMDc5LjU3IDIxOS4xMUMxMDgwLjQ3IDIyMC43ODMgMTA4MS43NiAyMjIuMDYzIDEwODMuNDQgMjIyLjk0OUMxMDg1LjEzIDIyMy44MzUgMTA4Ni45MiAyMjQuMzI3IDEwODkgMjI0LjMyN0MxMDkxLjA4IDIyNC4zMjcgMTA5Mi45NyAyMjMuODM1IDEwOTQuNTYgMjIyLjk0OVpNMTA4My42NCAyMTkuNTA0VjIxOC42MThMMTA4My44NCAyMTguNTJIMTA4NC40NEMxMDg0LjYzIDIxOC41MiAxMDg0LjgzIDIxOC40MjEgMTA4NC45MyAyMTguMzIzQzEwODUuMTMgMjE4LjEyNiAxMDg1LjEzIDIxOC4wMjggMTA4NS4xMyAyMTcuODMxVjIwOC42NzdDMTA4NS4xMyAyMDguNDggMTA4NS4wMyAyMDguMjg0IDEwODQuOTMgMjA4LjE4NUMxMDg0LjczIDIwNy45ODggMTA4NC42MyAyMDcuOTg4IDEwODQuNDQgMjA3Ljk4OEgxMDgzLjg0TDEwODMuNjQgMjA3Ljg5VjIwNy4wMDRMMTA4My44NCAyMDYuOTA2SDEwODlDMTA5MC40OSAyMDYuOTA2IDEwOTEuNTggMjA3LjIwMSAxMDkyLjQ3IDIwNy44OUMxMDkzLjM3IDIwOC41NzkgMTA5My43NiAyMDkuNDY1IDEwOTMuNzYgMjEwLjY0NkMxMDkzLjc2IDIxMS41MzIgMTA5My40NyAyMTIuNDE3IDEwOTIuNzcgMjEzLjAwOEMxMDkyLjA4IDIxMy42OTcgMTA5MS4yOCAyMTQuMDkxIDEwOTAuMjkgMjE0LjE4OUwxMDkxLjQ4IDIxNC41ODNMMTA5My43NiAyMTguMjI0QzEwOTMuOTYgMjE4LjUyIDEwOTQuMTYgMjE4LjYxOCAxMDk0LjQ2IDIxOC42MThIMTA5NS4wNUwxMDk1LjE1IDIxOC43MTdWMjE5LjYwMkwxMDk1LjA1IDIxOS43MDFIMTA5MS45OEwxMDkxLjc4IDIxOS42MDJMMTA4OC42IDIxNC4yODdIMTA4Ny44MVYyMTcuODMxQzEwODcuODEgMjE4LjAyOCAxMDg3LjkxIDIxOC4yMjQgMTA4OC4wMSAyMTguMzIzQzEwODguMjEgMjE4LjUyIDEwODguMzEgMjE4LjUyIDEwODguNSAyMTguNTJIMTA4OS4xTDEwODkuMyAyMTguNjE4VjIxOS41MDRMMTA4OS4xIDIxOS42MDJIMTA4My44NEwxMDgzLjY0IDIxOS41MDRaTTEwODguNyAyMTMuMDA4QzEwODkuNSAyMTMuMDA4IDEwOTAuMTkgMjEyLjgxMSAxMDkwLjU5IDIxMi4zMTlDMTA5MC45OCAyMTEuOTI1IDEwOTEuMjggMjExLjIzNiAxMDkxLjI4IDIxMC40NDlDMTA5MS4yOCAyMDkuNjYxIDEwOTEuMDggMjA5LjA3MSAxMDkwLjY5IDIwOC41NzlDMTA5MC4yOSAyMDguMDg3IDEwODkuNjkgMjA3Ljg5IDEwODkgMjA3Ljg5SDEwODguNkMxMDg4LjQgMjA3Ljg5IDEwODguMjEgMjA3Ljk4OCAxMDg4LjExIDIwOC4wODdDMTA4Ny45MSAyMDguMjgzIDEwODcuOTEgMjA4LjM4MiAxMDg3LjkxIDIwOC41NzlWMjEzLjAwOEgxMDg4LjdaIi8+JiN4YTs8L3N2Zz4=;" vertex="1" parent="u_fNkNDR4HUex8JTrdVU-15">
          <mxGeometry x="58.960000000000036" y="50" width="119.08" height="30" as="geometry" />
        </mxCell>
        <mxCell id="u_fNkNDR4HUex8JTrdVU-13" value="" style="shape=image;verticalLabelPosition=bottom;labelBackgroundColor=default;verticalAlign=top;aspect=fixed;imageAspect=0;image=data:image/png,iVBORw0KGgoAAAANSUhEUgAAAaYAAAB3CAMAAAB/uhQPAAAA21BMVEX////AdlofMF/GeVoAGFMYK1wbLV0AGVTQ09zS1NsIIlcRJloAH1bDeFpLVnnv8POWm651fZegpbUrOmUAFVIAHFUAKV8AElETKFoAD1C9dVoTLV+Bh5z4+fqzt8WprLoAAE/f4efHytRkbYoAC0+0cVqeZluxtcPp6u6Lkaapa1tNQl5bSF5zUl0/PF7b3eS/ws46R29UXn9ATXOaZFtuUF2AWFyJXFyOX1wAAEpocY03OV5gSl1wUV1PWnxmbosnKlUxP2lGOVchOmo6MVUiJFEXHlFHQF5fQlWxipmTAAATwUlEQVR4nO1daWOiyBY1hYCySFRW9wV3E7fELXa6M5mZzP//Ra8uoLKLS0L6NefDjG1KLOtw91tFKvVboZdDxUo17lkkCEO1hyQSIW4R90QSBKJf+8nSFAJorbgnk8CJqiBMWrVCZV4URWY8MmniCnFPK8Ee1Va9Ml8gSRMljlHRy3jVKXVlgybmPu7JJTDQv8/p2q//lk/DTqdTKpXuCIynHfEsl7FAMYk0fQe05g16tO4QBI9xZ4EfFpcdYvj8IpelWtwzTJBqvjaoZYk48LNn6XE8fFiDVD0oiQsRO+41eckTFjdHaSqNxqXxeoX/SYwbQtyT/NNRbWvjjkUSUequV6uS+Xo3Hq66I/gLT83inuWfDmHGrSx1x3d2SC6XuSH8k1jtlne7LggT/yQmHkS8EJA63Ou7ISqD8y0bNHV2O2I5HBty9aEnOi9WVBHV2dsi/sUMZctAGzFedvnx3Y4AYVIGcc/zD8dCPbK0MiNZ2dBz3dWY6K5A5/Ed8i3uaf7h2EoHlrDLgANZqiw/GE7DuLsmHjqrIfb7XqR+3PP8s1HQu4QtTlqPHj+eDUvFD5e7ErEjHrCZehSzcc/zz0ZWX9pYwuQQPGE6ffy6syP4MfHc6bxImbjn+WejWhw7WHIwdoeDpzXR7ZLyJO55/uGosKUglixrxS+lYmKX4kWm0eXDWeo8KvOkuh4z0C5Q5ZksreRNEi/FjQEXShJfGklqkhaPG/3GU5jKI7pInCcZotgxH4WpPGIpa4nCix9TrRMiTMSzLNbjnmKCVPV9GSJMxE5OJ0X1b4DBrzBZ+iGnk/rSN0BfCwmZ+CeZ3cY9wwQY8+As0d1dqUyRSVD7DRDqPxC7spS4D98Bcoj/wA9lCsU9wQSpU/7Drpw0In8HNBvDEP+hU0Z6khT/BsiFpVyJH2Uy2cv0DVBPB5OE3bxk88W3QF8MS7nyaxmlk9aH+PEaFjLdEY8UYuKeYoJU4d+wwjo/LCPyNe45epAtFJpxz+FLMQnLEmFheihHNk0RcrOZ2yxuQee4czfu9Av1A3q9aSvbD0is9AsW6vVaK2jQFyM8MY5pQgilIy4I6p0cUjw9JAL6Ip4VxZy3gpkNd4Qk0aLGztr3Pq1stoESrRW301tM+Uq0/wpliYeNtlzEqEksnhox3dzEZ6xJ0DKtnNctmEkjN0iVUdDALeBZx0BKFYuxl3BOtD9ABgJRJ1ffRF87WZKaMe2rp4zRUmABN+cpUKCJYk2oJEntaWD1vLN1wKBpP84YouVvMevL0WuEVWwBZYTUiEvbSp/aADBN3yhQfmOxjJ/p2GCaqLcKIJ/fznPvipbmVIMsVncklg2aKubIV0nEX4Wkm9xdl2Kqn+jLg6Ap8pb1HodOiNMM38M3Mcn9ua5tz7wSponM2d8QMvU8ElVDf9rFBdNkUyCZLRjCOBsMWspTeF/eHTEuR/cgBiwiQ3d6TrGuom+UHayeTbeHJgOttgiKTZof33LShKfNYb0XX71tqqxPsHRXgr2CUTfJ/MQ3Zqg4LfCCpGPbJeBPE2ZlwcGZMUe15qYpVcceSzouf6+nn2TJ0HlU1B1nC6zow8TJMPzcTTzySxBEE1YDoNboQ3ebh6ZUkUJsTF7EoNE9xZKp86J6EFWwtWHilCNjPUInmKZUQbH7916a8mxMmRghx5zy8UDnUWcsbF8zQpFA2TO96EDSm5PJKQe7PzmtfuEy/mYkhKbUPW2buZemewbFUsupaSP+NEuGzkN0RA+ihf1YLC90kDjlzBjEj8ZWBW0UUVQaxYGVi2/2aj3r5QS/hBt9WtRFnR0YHFR7tZpXe2YHbw24zAZVrDn38Wf30w+jKTXHdpW2ruhPU+BHPw3NV2V1UuHtdR4SI/aNY3+cxFQEBcMtbACKvi5T7y3NUvtYU1wYy9rbSPu9H4WNpFewktaAZvXN+LiwkaSG6zLThXi8TLpomPzWRtL2nWuhNAkM/tS7+dpX6UVV/TdDP6+POlFYgoJguFPgAPbHpdaMChInzCBTwP+RXKqtmUvD+lOkqhoxP2nEMDXpoGwLHGIrqYIIuR1SNA2IgJUU57iMYDrWFAmpA/BllDa+vVr00faH0pS65w7WydeF+GKbKgzoX0/uE6MCdN4T6LzILk5bRUq/RyPSV5xAJYqprer2yKecClnU9Ns8n/+ZY2kVjicV3DQNJiIipVy7aE3GQ1OGAgeGSRfn2/w2R6XxZdj35hk0CSoFdwPAQ9MUz137yrqJMOD+WUWwSqbO2xlRU9S8I46K9FTqjfJ39kCYBqDkOUc8X9PhZD713loEYTqnSdBsTprUyoJSZ5NjUOumqQWixDKVifn3amuLL0OS/UxkmkCxWW1ubpr6+A9fqfMmef3XOipJGOaRrhGD2yqiQLmDOPl4CRmsszgB7Bdj330z1cH45e3mKlNkETuHgUea8IqTM/sgF00TBZNNt+1GdIKDVnI25SLTBLbTbKBy0TQl8S2gfFlrVS3XGHWjqTtT5xmHhUY2TX3RvOWwHhe94mQKE7Blvy+baby8mnv0HIvPO3LQhFwmzUkTKCykuTOPeRocz8g0VbFFow2/w07TpDAT8cU3X5SDyOQb7EPnDJLMui3a6+vTwMbHGAvi5KE2o2H7g2/2vnTwpwAzvI66199vM/azZA2aGOcOOCdNc2yXNG9utGJUpaLSlJqT1lcaGfLt9mc7h3SRI8Ed+RKWMhVZGXf5SN6djaYiOiNqAn1mnqVc9LFOr6YwpaoUhaTDuwW82Ipf8mhBumlyRQUOmiCjK/k5Ym32HJqwcTLHGjSp4Hia/j25+PytrMI0Xxb/WnuOAz0J6FXB0KNmhgeMRamPOIEwscZvxR4GvVdfVTDNP/2u1eRcNLktuIMmTKr/+gv4C6LThN0b1Yixsp4y7+unSlM1e/8qSeP1ecpuT9MSaIoefGN/XDRPX8GL48on4xjf0lr41aEuMqUDY2fMuYMmd8LWTlMW237N/9wXSG1Hpgk8SuNuMGhiADgGo0CiSHH2WZ2Kk3pbVn49dM+XIxPQn3dOphTbGcVc857kEqesZrh5gIHNI8fEBgVl2IY5aBJdNNhpqrCInKd8ATo2Mk11zrqOQVOhULi/H+TbC0QzRtD9CeFts74tb379eOoQF3KEUTKO0ovc7woabG91KJc4tQ/CBGvB7r0BFivAoOoTyJ+NJrfqtdOE74/A2O5gb1IRpIk5SpPNIa9OBgzYuBuf89iv5eXGr+erKLqDEw8N00RH/lrsw+2TyFjX2GOnLDbxlqCBotvbmSYdUhPFa2anyT0NG00CG1K4nErRaRqwR9vkzEJU85Dc9wQOlyMzeG/8+tG9u44iAGE8CSN68A3++EGDOa3T0TJhbpSDR44/QQVWBzCdNpo8aXUbTU18GTXoMhMxOk2gg43ow5vTMwpSlHSbOntmS6fNY/ivpAhg6jwucqdGnbPZMUdmzzDxe09BUBGklAA1ybp7/YA/ZKPJs7w2mvDI4BBc0KLThJWnGVH40JQacLd5dotQeBPHT5f6Cx5YOs+dzg4G9g1sFqJoEyebZcKYUUgxL4o9DTUwrTtx0KS6XQQbTaGrX9Uj09SH3LBhKv1ogkji+pPXJ3np7wtio2AQH1RQDc8fmAybu1E/xk4T/PPpo9uNY30rYp6GSVPGSZN7nI2myY2kCd81SDTUmi9NYCGp4E9HwTQnPg9vyJGxK9pItET3brD82HuYIbNnihMIky3hhH0vS5PCskW0TR6ps9sm6Ta2Cd8/liX2pakJbS3Bnz6N+vs/67ubkrTP5yEx8qYH6Fch7ZOSLA4mirMH3SzyGT9ciuzpecIru6dHhnh6tcieHgRLltb2panPXkVTXf77nLR3VJi16ugtqrDmDg35bomTS5gMVWe5j2TkuMmT/7XHTYubxE3QDCGaL31pEq6haVr++7bazoTZq3JObxpeA6fzjsUJTO5k49rQgdXQnk/7GrrgykKE0gT9JFdnIXpYmDjrC31pAhN7IU3NxT+fIUmHZy5E13mGP+40ZMgQp58uYUoJWMcr5ksoxCmRcnqhNE2gnndlTq8JcZFq6Q5fmvDN4NDq0TGQlmeUYs9hyWiCOEfnOXJ1Jgzr1HRZJjhC++CRp97IAF+v78qQh9IE+sp//atRM+R9KFmI+/SuH00glxf1gDVnf0XrDzofhClMTNSKYMr0x12yp+If9kZ5lvj14JGnamJAvSmnnkNTJqjetGWi1ZuyUOZlDzrbj6YtpKQu2JXRE1efou/uDpYpqDrgC+wxpF2hMGgcTHfa5YVt1aPcQdnVZ7/H1l29DacplWdssnDEIFr1tnoPT1smiwfV4UMTFIKpC3ReRRx+kihhmsxa2Fld0xoe7zYzQJJ3hbGSP7zXZ3BsT7trbm0cKBXPoQkUKfI89iufjtIL0b9HoGFJ6ng3eWia5IDw8yvt1dyv0ieJ0iFmOmvvRFP0yViAOKGNm7yaZPMJWw34/Q4SMm84AP5Z486gKdXUgCfHvrTmAn8s5+4sOt55VaGZbRUqC50xymrvNpk3aKoCBKGfnd7nFPKiQkZfHn+O7wDgO6bKi9z5tV8Cr1OMxclr32Bv5TG5M21Anx59b31XtTXXSNhC6el6dcLdp5eFPj1VH+zVdGurk4hZVF3tlIhUNECjsdE1RaQ51tpb6yj1Q6RLaTqGBoMYo5tWP58l+uHTFN6+aosnVj5jSnWfpTTEycu1AKXc432fYY12Vfq9XRnkFwytmhuSe+fRlGoWGeMyaI4vk2NpfFGx7WlO9gOlKjOnOvP2QlAce3axSSiHn+RwJUsPljAFhYy+AH/cm+avFjmf8BVrGXunr9BWVGO1WAZ6yCnGWBFME3ekySOTQpqinD3k1fzhMoaIsBLMx14Fg45O+9JTFEmynEJu3T5MVqTsIFmRGpzfWzT7cS1LvgrTejKn9cD1s1IQ0Fmn+lnYesNHcS5Y19jWfL+lnFJptWKsSE9U6T1NtMp5aFJU1V3RzbYlzuwwoVSJyxvf3FLUw52S0VQ7KPS2mFfqWW9saKcJvc/mg9YF9cB8+HkbEUjqrHx44o2DD/nO4W6L3EdpLBuG7/sBY12/u1mYF0mGIYs/a9YnqsdBVe/4gC/s19tvJIsvM6/vbZ39s4ITwZusHaOCBoWj/u91JGGgZx+iiZHxvxfqQNMXP2lB6Pdv0bV4o8tciaYYctxnJBBLeem9BN99IaAYWD5IE5M8EONyvEXa5hcKJK+9NBEj7D0SoyNL5ym9BA5UrjVM8Chb2Xu0Cg6WhjxvZym2Hfb/B2gpJx79F4GmR0rueN4ldnKp9GFn6es3m/7fQJBCn4MViSXscJe9EtmRy+sXB0vntKskcCD8UNZIIEYU9eG5CvFcRmUKOaHF/XN/U1SYa0kyCn5lrz++T+M54G6vTxAJhaCj93meMHBX6gBK1j8JgvcmaIsIyR7NCcLkRfSO1wRH1Bo+vjgw0umuHnYfxbJ8RBm9fOyeH1bdYYe38cUbcZHHg+B9hSnxIS5BS3frKixEne7DCJXlctljWBCF3zT+Uhw9L9eYr1Kp1DF8uaKbbfNgAS/OPPI2AbQNjJ2qiieGS+xbe/nxgDL4gnHmf9yZW2v3phdSbGeq/aaYtHUnS0Rp+RKFIh94gltH7sGO5AEmZ0BoDRa66kjDEZ0fXv85MlwsWcc/+I2M7UTG3wXV/qQ17d1Xtq9yQyHH65JNUfGlh/L+/lcZKU1zHGzmZTiJTksco/qu+AEed9xonSQXfp+60fm5/4doTu/zufKmoXH//P3Xf9hZexqWHPvKeGKNTJJIThHng16m2TdKJ1WhP8lOC4PtTNFFySxh+kB2efUEbFin2FRd8xnMnlPB/WOQyUv//Ld8GnbuiKDQhxi+mB2pjJ4rBMWfwgSTvZC0NJYtl26kHp3CZO6QgTbUgu6jRpncNyjefC+0ZrCTzC8mtem7Z9k4pyBdvD/d99PP9CrtN1GhOXZ/YIiniGGoPLPmPWUYL09qI9F7DuT/Pbm3gngy9B0pLs6w7dVmq16B4w2UtISDJtcVIf+QtpoOhLzGuiSK1BMvwoH2yQZJojQGBUWlZ5csXVVotqaUqymJgDZkW/dPs0Kmj0aNUj/vcJHfFPeb8fBun5vz1XeW68Bd8fiTVho56lV8F1+RdfQgV6eVmZpOS5IkSqidiJILzblGo48RYOyt2kGoNAJRYq7a9P7mfAgxPwS19ubt2sFyV5tmAs6J/sORrbw3Gg1pUZS9FVoeu81wcPumco3jVU87Qlu+gwMjkktcuUswpT09rTzRLYJ20rdXnWQpMA43z2Qp+sEPCWwYbNz94TwxHGEvnKXzV65onrGXbYkh7H9jktLfBejnGNejejBJY6zvWCV/7ZmwLbFsS0AQT6BEUSJLF6BF/+fwynmitH6UyxSbbl9911ff5aOc8jw09LOz5EnrF6Au2p4Bw/PEXXeHZEqlqcoNbvot93K4A4jOhwwHQieu3AXINDrHTF6puxojWWVorj29xWrWjiqP55dlClFa8pz1i9CWHnHQhDH6eKGMB7Pqi4v2bPhA0PYqjyeewG1k1NieSvabo95eyHpD1/VNQ3rP5Qe1G3phC/XRalp5esRuo6onDeLX4fItNSEYSOUOjznqrF4wSaT2mvjh3xAZRX4iiM56BB1IqpI782HmCb4E1SI5enp+BI5IjmsnJH1P5BloAgOO0rNCEip9U9Tg4TsUS0uLQpJ0+L7IwvNosWufpMKvxv8AZ+rIxbMSuJoAAAAASUVORK5CYII=;" vertex="1" parent="u_fNkNDR4HUex8JTrdVU-15">
          <mxGeometry x="58.960000000000036" y="100" width="106.39" height="30" as="geometry" />
        </mxCell>
        <mxCell id="u_fNkNDR4HUex8JTrdVU-17" value="DSP Service" style="swimlane;" vertex="1" parent="1">
          <mxGeometry x="322" y="516" width="247.5" height="70" as="geometry" />
        </mxCell>
        <mxCell id="u_fNkNDR4HUex8JTrdVU-19" value="" style="endArrow=classic;startArrow=classic;html=1;rounded=0;exitX=1;exitY=0.5;exitDx=0;exitDy=0;entryX=0;entryY=0.5;entryDx=0;entryDy=0;" edge="1" parent="1" source="u_fNkNDR4HUex8JTrdVU-17" target="u_fNkNDR4HUex8JTrdVU-15">
          <mxGeometry width="50" height="50" relative="1" as="geometry">
            <mxPoint x="752" y="540" as="sourcePoint" />
            <mxPoint x="802" y="490" as="targetPoint" />
          </mxGeometry>
        </mxCell>
        <mxCell id="u_fNkNDR4HUex8JTrdVU-20" value="" style="shape=image;verticalLabelPosition=bottom;labelBackgroundColor=default;verticalAlign=top;aspect=fixed;imageAspect=0;image=data:image/png,iVBORw0KGgoAAAANSUhEUgAAAQMAAAA8CAIAAADt6EhQAAAACXBIWXMAAA7EAAAOxAGVKw4bAAASgElEQVR42u1dfViTV5Y/JLxAXjCRMcEQG1GMRSiiAfxg0wU7gS7Ymu0jnZFppe3oVlkt/aDD5im17VApXUpX28U6yPqxRaebthuXiVVYSbaEMaIQjAQKWiMFIyGaICZiYnhJsn8QIYGAQKHjx/09+QNv3nvfe885v3PPOfeCPk6nExAQHnmQkAgQEBATEBAQExAQEBMQEBATEBAQExAQEBMQEBATEBD+Vkyw94G9D8kX4dFlgrOvxX4uZaAmeKAm2H4uxdnXgqSMcP/DZ3pvWzhvfG8/nwZOu9sbyORlVT5z1iBZIzwqTHCa6u2Nfw9Ox8h2GwbhDdiSJ5C4ER7+6GgsGgCAjz9hfjeTuPADEjfCQ84E543vx6KB6zWzbDdf39x/XokkjvDQMsFprLSfTxuHBuCEAT0ODodJmN1/VoGEjvAQMsFp+Itdvd4jRR4FR68/DPgAANjtpvf/YFPUILkjPFRMcF4/am/+HTgHxqOBxfeWiDP8b7vd/GGe7a//h0SP8JAwwXn9qL1lIziJ8WjQh9068rjD5OfRah8wf7QDkQHhvsIUq6gXu2vKG3YobcG+4Fjj350e8NN8ct9oGvR9xbH3BHgfguxLfb/Qn7dmZtZlPvP5R+KrQE96Tfgse1pHNtbuKj7WHbou983EkBlTS1dlUYFEM09QmJfGmPkLMZojwn1NY6+oWZRbrvJsoi1axk16OjkyBHuk94Qz+qaX//qnk1bmDYf/dQflG2v4yzfXXHNQPB7yC7l9YuWYNBjcGT58p7/x7IwsS6+QNpsNvea2U/W6nzGMqb1BXd/Q2eveNkDcMBt6TYRjBrViUNW3EUB0qNTGX8IIiL5xV0SYDb0jPtozNZKivLeLTugfGib4TqHPzvq9ds8U+Y6TnNHLl805TgInAIAvjRwnp4b792572Xl77NtHdvut4p1zRN9N+6p0p05rAGhBFJNRUducnrF0quOcPLhLCfxtKzKDf1GtMH6duelqpWZRWkLI/WIonOc+2PEsc4gcplZJaYm07egnogW7MqIeyT1BbfzxurVndHu/k9TvJAEAkPzIqxp9cA55Hjt435/Bd7wN1GG8TrSqp3tRF2trjYDzsrfzGGCtVT6AF5/w8MSs7ZtSwvH7dH4YLSo951UuDlZZ3UNyr2zSe0Jb72XvNg0+DvABAHLCBZ8AV2hOZobOKRf3vCAYZ8CBHy9gUTHTuabmhloL4LzlnMU0Pl0qqpM3vhAd5+++3VstFgICqLi/Z0eb1XKHwHAqhrl+NhEAALf7zBYTAGA4bSgCxIAEQJg7VQplc7eFNj8+dmVkONXLZGx6zVlV06VuC9DC4rnLosJp7p7BYrYQGDaLggFhuCA/U3cFlqxN5TExB2G5ZQUyBQ/C7j7m3SLdpgTgcA1yE3DWYm7MqgiGv7dOve1qRX3TNcvs+SvjVkazaFNlA4vNApWmW2+CaJr7WkgjQy/CjuE0ikvsGAXHRzlHm9Vyx/Mrm15Tq6i7YgL/0MWx3LglTPdh3cYcVIFpdsJafhTVo+M4SpkWJixnLBljc3GSwEnmtQ/RwNUewpzzlWQcMmDRy6Y36G2sUViAmp4UDQBxTzJFFS3yU+Y4vptEmg9v26vy3O4BAAzVn+RW6Pnb/pQZ6/rZlReVC88AAHCF+7dEup6lMwh5Sa6o0RX6NciqxLRlGz/czqMNK8za+d2+PZKLhqH4u04KGHNd1lvpy1yTaSsXFimZmUKBrrRMZgIAgJ9CV/PSGNelu3ZINExBcUEaw/WY18W6TUkrLflM3GgaepccjlATX87dxKO7b8HqQ5+X1BldtKprEH+NRT6XmzbFbKZHB4DPZ9Pc11LwAd9DqPraf80/rOcK92+J7KsvFYrUOG/Hro0ckqfKynJKmiipb+zKWAoAhK76i93fDstNViPBaNysd7bE0T3GzMlnVxZI2gYXQ0Two7iGE4V5R7V3nUaDrEqMMZOEeRkcfAaYEDF7YWggo/u2YUQ7jQz4kxqfgMe8kGSQDC+lw8BIz0aeG+rLiZhOItjONzQD0FfGhQMAMHi8yAqxuq7exE+elO+bzU3PCbF2Sg+K2yGSvyltEQDMYQ1/f+FAsQoeSxZuSAmjws3L1eJyaWPTkQPfL825SznDd7sLKrRAi8h4MT1xEQ3A1FktPnjy4rGSP1q2fZQZO+TLLbIDZTo7e92GlMU0uHmLEjhqMqynN+XEerRYzktK640QRHWpWF9ZsFOiAWpcakZ6yqLZ4JpS7aFCjDL0LmtbWeEupRUbmpLNqD526EDF7tLJB2FEh7T0gMJCYmc+PWH1BScJEv6iViikZzdwEty2hV65tAmAzktcCgBgOFH8wdGRciutUpUUlAkLt0QOT1UrKlEZgrmZqVxGQL/BTofWIwVHtURQ9KbXNyTMoxEmrfrYoQN18qKS0E+FSbRpZwIAFKx+8zX5h9YB21BLEIb/+R+KSQFzx0xHQpi/+s//7t36onsC7RMYNCtv5/RGe6ba6jMO4DzJc1lt8MqkxeK2S/I6bXLqZKqp2LzomHmAnTsI7cCKWBETO+J7qyVYUJjjKnHisenZs4jcIrn6lMLET6MBgFa8u0JLBHGFO4eUR418/s3ihMqCfImsXJywfMgvmnV3uJ46Hgla+IqYcI8aa8F+I5DYmbkZYYM+9VuJxkHhb/vjEMHw2PTsuXhBvkT2zQl+bDoLAFrFpUor0JN27MwIc9khdfXmnYvmFuZVaO9daa3If6XCsykoIjN3q+cOcK+0O5nHUkjPyOS/Sxh2TDqZvA0gJiWFBQC2BrE3ue0IKMyrUB0+oS18fkiLRgNFUPjecJXZ8N1lE0DiC9sTwwEAsJDw1ZvzQpdewLnciTjBqVRRY+gRR57+dGOEIIYeERcSvSX6txXP7mUEzh2/F5kZ+qsj/4O/9Cq2PA57Iobym43Be7/EnpjWDAHMTWe1AOxE3pB+qHFPRgMYa89qp/VFFP56z0r/4ogYAOjqHizaar5X6ICSunmUfc9Ly3yKCn0K6dnh7THymYzIiXtli+pwsUTjoPCz3uLPG2T/aXkTwIK1gljKiHcJlgMY6xvbAQA0ynMmoKS+OESDu3WqtQL+BN6O+VMZwcMfGgbQd7HqWL1hUtVkdopgMUCHvG5IG46WwfKG4CkqAFhO1ZxxeBEIY21KAoDurHtNfKQKAik4ACjr5IZh0VLCVnIZEzvz8J2aIcyfFfrG8pe8fmW85TzaQLR22QEgah55/QqMPsvHRbtZtMCXXp3B/F9bXdUBsJgX71b0xOJXrv6y5UytXLN+RHj6c0BjMLzWDQYvnug7f7QCcKO8/UZGWFQEJmtQX2qHBFdcwZoz0awOHHpZcZmsDzjP/ctwfNVxuQ0Auk4U5FaPog0AmA1GgPCxp0SKXhYFVfe6JRyW9pZHWuUwd367p6BaVFBG/TiLO2EiU1ev5ZV/rpBIW1J/Hw0AxFm5zAKs1KRB1XR2tAOA5vhHuSdH9rxNAujtMTqARfKuAvypzMxT+YebRbnbxaxF0QmxfxcTHxEWPNGzP9/pNcXL1xw5R+702Vzn1s1ax3HVQPGL/o8zyb9AIUx3ul4HAJdE2/5JNMomzil/2MhZCr8kMK/EmxsaBqCxWCY/nrWt7JPDWqDFb8lxN0r7AAGAkbypHKcycIA75ntMaSrld2rYhtcyLwkPKivrrnP5Ez/3WJokoCvuFvQIdX0LAexU/t2YhwAAwLwZSyCNGggEcQtgrFiHxOS/VxR56oToxOm2SyrxJZX4a8DnJeUIZyZjHgdXbzheL7fe8cyK+2zO7C+tJa/4PT7Xb2btztFSqzADiR63auHskTTQ1zVpZTUN6UtXjOMiTDdM03UcEDgLQE9YbACj65hXtBoARvCki5eG73bvUloxtmDHFk8fTPbFAGYnbi3eED52737AAMBkMnmxpKmel1MZdIAOre4qwJhMMBnMIyOkBD5b9HWLtNYcF18vbQZsWUpC8HB1GoCatr1oXfgU+clKzMhJzACbVXdZUfuVpKpLXlBIGyzBTX+e4BXXTM5NZSNp4DoxsPssze/s7CFmlAiD+ywWuz5786bMEZ/s9EQciKZ6tc1NRbdHeGWtptU6TXOhzl9EB2iRnzKPnmbbuQsAlLioyanacq6soEJLBHFzckfdRFoSEQdgUKl0owyaMJnvWjk9cgkVoF1eP2pKFsXp81PMygxGAGCyhmtqlpFbnbZFPWrzo/EFqTi0yarPyORtQBc8M+yeOEuiAcx1De2j5Wbpvaf9EKauuwVifworKjmjoChrCYD+dGPXzGTMXmnwwhcW+9iuBcf8FuT9NJNkINTKFgIofB7Xa+03MZEO0CKtNQMAsNgcAEPdaY3bhE3VIvGoSz50Jh0AbvZNmiEsfnIMCdRf76nSeizZpCgrVVqBmcKfVJzWVbmrVGUisTNzvZWY/HnJiRQwSg9+2+5hdaYG0QfCbTkH22wAAKykNRyAtm/3yNzNwmFWl4vPTGVPIHQVew53ADBXxjABAOiPMQHM0lMX3Y8var+Sern3RYpOTKSDUVpaZYQFSYluPgFLSE4NAp1MdOySh8wt9YfeyX39jQOqsQ1IX1vw9hsfFIrOuXf0xTAA8MUmEJtPQ3R09YZjU9k9bKWvnwAAznsdP3wQNiNh0mBNGo+NH8PCWKuWs6qkbXKFISWNweQlL5ZoLimKco3p/8hjBfQbzklFSlMYm6rRerhMxqIIHIyNRwpLLi2cbaLH5wgiJ1w7z8q6+M5elWjn28rYtORYOg6mS9LqqnYzQWJn/vO9N2v3GoRsv0TjAJxJ01UdPOxJ1fjnBZE04DyfyW8qk1UXv9HMzXiaywgAy3VV5XFVJ4FFrl8bORihMdO2PqfKq9Aezhc2JaYkP04D02VplVx9i81hajX3ukrXWbk7V+5um2aDDSAoIuvuWhi8NTESkbr2s1xjcvqT8/E7RuXJyto+NidYq+kd7SmSIqvEbQCr+Z6VflKE4KUVjaUN4iKhMj4tLZaOw6B29ATGzkzljh3cMhPWLReXNMj2CjU8QXosGwdjp6JK1AwY28XVmWXC5WuO18ut9nGdSr/dMeBwAMCA3RlbcOWUkL38Mf9pPkZQ1rcBsBKTOGPW73h8pvSw/nSjNi2VTV2dvb2rsOyY/qKo/CIAAMZM3ZLHv/5FricTYGm6MLW76GR7Y50RgBs/qVwhdsvHf6g88B+SRqVEc7cyg8/jZWdvjKFPanEDg3mkRd8iG2mvTNYzgkgaAM7N3JnLKt0nalUdHrpBjTFTt2zPWDn8MsazeZ+GHNl1SKGuEatrAAAwWkRm7laWLKfoXkwgbGaDzaOoGskTZK7nDV/WCE7Kyu4u2ivvbJWWtg6+n5ezI9nwWb7Gi6cIjwqGNhsveRU2Sm6b8nNDD5RKGpWSUuXQUng5b95DbtiyTR8LQw+UShoV4l13f0eYESV4LWtCfudn/ZWXCzqH8L+GK0Xe81ins1FvvNXfP9Qym0L63zcfW7kgAP7WIIztmvYeoC/kLKCPV1RxEJZbVtd9pMm/hDDpOy/qLf5zQhezGfgMX+i3WXWXW4x9FNqCRWEhlDGX09Wu6TbjodEcNmW66xaEqeNipxFo4RFh9LEX23xk2+eK2al5bidlowTXp+1snYLcCOK6VtPRQwQxOQuY+IQ7Tp0JrV2Od7+5Y7aO193udKqv9/TesY1onxNIPvYaKyGcAgiPIsy1BcKDV6KzP9sed9/ctiXNKA2avdEAAHpu29d9oatrtyKjeBTRXl3VAXhCUtz9dOl8KkzQXLs3DSh+8JO594Y3GrjI0Gdft0d3XmtDhvGIgWg8LtUBXZAcfV9NaypM+PCobXwaBGCQnx6w/5U5gf7jjd9z2/7bMh0yjUcLxtMNV6iMpckJ7PtrXpPOE670OH+/b7ybAv6+8PGGgGVhZACo+dG69t+vWonxXtGavyCS6YcsBOEB2xMafxrvrxthZPi3jS4aAMCaxynfv8328/UZp4u01YLUgPDgMWEhY8zzOpIP7NtMiWR5PLBqYYDq3TDS2FyInoc2BIQHkAnLwkjBgT5eafBlFiWM7mXAKJbfjzsXeiXDXCp5TQSO1IDw4DHBB2Bbst/ooGj/qxRW8JijLWJgze8vGB0m7f5NiA9SAsKDmDEP4oLO8UW1rbXLAQCrOOStv/bzuhuMQFt3f67YcLz5NgCsXhjweUbI/XDSjIAAP/O2haXfSfLxCZjkBYLbNofDCbMC0H/7ifCwMAEB4dHNExAQEBMQEBATEBAQExAQEBMQEBATEBAQExAQEBMQEBATEBAQExAQEBMQEBATEBAeefw/7pXvgY+bZs0AAAAASUVORK5CYII=;" vertex="1" parent="1">
          <mxGeometry x="60" y="527.83" width="200" height="46.33" as="geometry" />
        </mxCell>
        <mxCell id="u_fNkNDR4HUex8JTrdVU-21" value="" style="endArrow=classic;html=1;rounded=0;exitX=0;exitY=0.5;exitDx=0;exitDy=0;" edge="1" parent="1" source="u_fNkNDR4HUex8JTrdVU-17" target="u_fNkNDR4HUex8JTrdVU-20">
          <mxGeometry width="50" height="50" relative="1" as="geometry">
            <mxPoint x="290" y="530" as="sourcePoint" />
            <mxPoint x="400" y="480" as="targetPoint" />
          </mxGeometry>
        </mxCell>
        <mxCell id="u_fNkNDR4HUex8JTrdVU-18" value="Server bids using tracking data in MongoDB&amp;nbsp;&lt;br&gt;and campaign setting data in MariaDB." style="text;html=1;align=center;verticalAlign=middle;resizable=0;points=[];autosize=1;strokeColor=none;fillColor=none;" vertex="1" parent="1">
          <mxGeometry x="312.5" y="542" width="260" height="40" as="geometry" />
        </mxCell>
      </root>
    </mxGraphModel>
  </diagram>
</mxfile>
